<?xml version="1.0" encoding="utf-8"?>
<!-- Generator: Adobe Illustrator 16.0.0, SVG Export Plug-In . SVG Version: 6.00 Build 0)  -->
<!DOCTYPE svg PUBLIC "-//W3C//DTD SVG 1.1//EN" "http://www.w3.org/Graphics/SVG/1.1/DTD/svg11.dtd">
<svg version="1.1" id="Capa_1" xmlns="http://www.w3.org/2000/svg" xmlns:xlink="http://www.w3.org/1999/xlink" x="0px" y="0px"
	 width="512px" height="512px" viewBox="0 0 512 512" enable-background="new 0 0 512 512" xml:space="preserve">
<g>
	<g>
		<linearGradient id="SVGID_1_" gradientUnits="userSpaceOnUse" x1="66.8433" y1="115.8472" x2="162.7495" y2="211.7534">
			<stop  offset="0" style="stop-color:#2A7FFF"/>
			<stop  offset="0.1628" style="stop-color:#356FEA"/>
			<stop  offset="0.4999" style="stop-color:#5145B3"/>
			<stop  offset="0.9791" style="stop-color:#7D035C"/>
			<stop  offset="1" style="stop-color:#7F0058"/>
		</linearGradient>
		<path fill="url(#SVGID_1_)" d="M19.826,354.677c13.942-114.021,72.057-150.593,124.094-182.999
			c53.136-33.104,99.094-62.098,93.565-171.037c-24.759,1.797-48.545,7.074-70.867,15.43
			c2.312,86.457-38.644,112.098-78.387,136.857C46.256,179.072,6.604,203.774,4.121,301.255
			C7.44,319.81,12.717,337.724,19.826,354.677z"/>
		<linearGradient id="SVGID_2_" gradientUnits="userSpaceOnUse" x1="57.5771" y1="92.5869" x2="92.6411" y2="127.6508">
			<stop  offset="0" style="stop-color:#2A7FFF"/>
			<stop  offset="0.1628" style="stop-color:#356FEA"/>
			<stop  offset="0.4999" style="stop-color:#5145B3"/>
			<stop  offset="0.9791" style="stop-color:#7D035C"/>
			<stop  offset="1" style="stop-color:#7F0058"/>
		</linearGradient>
		<path fill="url(#SVGID_2_)" d="M76.121,133.492c37.042-23.088,66.998-41.975,67.673-107.588
			C76.373,58.951,25.549,120.774,7.36,195.27C26.03,164.718,51.979,148.521,76.121,133.492z"/>
		<linearGradient id="SVGID_3_" gradientUnits="userSpaceOnUse" x1="114.4355" y1="145.8965" x2="247.9109" y2="279.3719">
			<stop  offset="0" style="stop-color:#2A7FFF"/>
			<stop  offset="0.1628" style="stop-color:#356FEA"/>
			<stop  offset="0.4999" style="stop-color:#5145B3"/>
			<stop  offset="0.9791" style="stop-color:#7D035C"/>
			<stop  offset="1" style="stop-color:#7F0058"/>
		</linearGradient>
		<path fill="url(#SVGID_3_)" d="M82.886,444.396c9.02-121.519,62.339-163.929,114.043-204.987
			c56.169-44.597,109.248-86.858,106.26-235.116C289.258,1.694,274.95,0.24,260.332,0c5.93,122.033-49.987,157.267-104.313,191.103
			c-55.036,34.283-111.834,69.871-116.207,201.703C51.888,411.841,66.368,429.194,82.886,444.396z"/>
		<linearGradient id="SVGID_4_" gradientUnits="userSpaceOnUse" x1="239.2861" y1="216.6377" x2="393.0901" y2="370.4417">
			<stop  offset="0" style="stop-color:#2A7FFF"/>
			<stop  offset="0.1628" style="stop-color:#356FEA"/>
			<stop  offset="0.4999" style="stop-color:#5145B3"/>
			<stop  offset="0.9791" style="stop-color:#7D035C"/>
			<stop  offset="1" style="stop-color:#7F0058"/>
		</linearGradient>
		<path fill="url(#SVGID_4_)" d="M357.046,310.79c51.304-41.175,99.701-80.368,97.114-216.996
			c-13.816-16.838-29.739-31.833-47.344-44.688c-0.721,149.265-58.744,195.922-114.982,241.045
			c-52.93,42.479-102.895,82.668-106.558,211.936c21.108,6.067,43.303,9.513,66.242,9.925
			C257.551,390.985,308.043,350.132,357.046,310.79z"/>
		<linearGradient id="SVGID_5_" gradientUnits="userSpaceOnUse" x1="420.9609" y1="375.4824" x2="459.7682" y2="414.2897">
			<stop  offset="0" style="stop-color:#2A7FFF"/>
			<stop  offset="0.1628" style="stop-color:#356FEA"/>
			<stop  offset="0.4999" style="stop-color:#5145B3"/>
			<stop  offset="0.9791" style="stop-color:#7D035C"/>
			<stop  offset="1" style="stop-color:#7F0058"/>
		</linearGradient>
		<path fill="url(#SVGID_5_)" d="M443.033,364.188c-36.744,22.39-68.611,42.021-72.32,120.751
			c70.455-35.404,122.389-102.345,137.178-182.231C491.385,334.69,466.351,349.983,443.033,364.188z"/>
		<linearGradient id="SVGID_6_" gradientUnits="userSpaceOnUse" x1="329.7754" y1="272.8613" x2="449.7936" y2="392.8796">
			<stop  offset="0" style="stop-color:#2A7FFF"/>
			<stop  offset="0.1628" style="stop-color:#356FEA"/>
			<stop  offset="0.4999" style="stop-color:#5145B3"/>
			<stop  offset="0.9791" style="stop-color:#7D035C"/>
			<stop  offset="1" style="stop-color:#7F0058"/>
		</linearGradient>
		<path fill="url(#SVGID_6_)" d="M431.129,344.649c39.354-23.993,76.544-46.634,72.012-151.91l1.179-0.046
			c-6.044-23.74-15.476-46.142-27.655-66.723C471.25,248.107,420.633,289.133,371.4,328.646
			c-46.852,37.568-91.047,73.362-96.896,182.724c25.515-1.809,49.999-7.383,72.938-16.14
			C348.838,394.797,392.542,368.16,431.129,344.649z"/>
		<linearGradient id="SVGID_7_" gradientUnits="userSpaceOnUse" x1="165.9868" y1="169.9419" x2="326.6174" y2="330.5725">
			<stop  offset="0" style="stop-color:#2A7FFF"/>
			<stop  offset="0.1628" style="stop-color:#356FEA"/>
			<stop  offset="0.4999" style="stop-color:#5145B3"/>
			<stop  offset="0.9791" style="stop-color:#7D035C"/>
			<stop  offset="1" style="stop-color:#7F0058"/>
		</linearGradient>
		<path fill="url(#SVGID_7_)" d="M277.525,272.295c56.261-45.135,109.42-87.888,106.306-238.161
			C365.883,23.763,346.561,15.51,326.22,9.707c1.638,154.988-57.657,202.057-115.051,247.627
			c-52.266,41.494-101.589,80.916-106.294,205.147c17.708,13.015,37.145,23.764,57.909,31.925
			C168.438,360.193,223.817,315.392,277.525,272.295z"/>
	</g>
</g>
</svg>
